# Blender 4.0.2
# www.blender.org
mtllib bullet_player_better.mtl
o Cylinder
v 0.000000 1.000000 -1.000000
v 0.000000 1.000000 1.000000
v 0.951057 0.309017 -1.000000
v 0.951057 0.309017 1.000000
v 0.587785 -0.809017 -1.000000
v 0.587785 -0.809017 1.000000
v -0.587785 -0.809017 -1.000000
v -0.587785 -0.809017 1.000000
v -0.951057 0.309017 -1.000000
v -0.951057 0.309017 1.000000
vn 0.5878 0.8090 -0.0000
vn 0.9511 -0.3090 -0.0000
vn -0.0000 -1.0000 -0.0000
vn -0.0000 -0.0000 1.0000
vn -0.9511 -0.3090 -0.0000
vn -0.5878 0.8090 -0.0000
vn -0.0000 -0.0000 -1.0000
s 0
f 1//1 2//1 4//1 3//1
f 3//2 4//2 6//2 5//2
f 5//3 6//3 8//3 7//3
f 4//4 2//4 10//4 8//4 6//4
f 7//5 8//5 10//5 9//5
f 9//6 10//6 2//6 1//6
f 1//7 3//7 5//7 7//7 9//7
